HIERARCHY
ROOT root
{
	OFFSET 0.00 0.00 0.00
	CHANNELS 6 Xposition Yposition Zposition Zrotation Xrotation Yrotation
	JOINT lowerback
	{
		OFFSET 0 0 0
		CHANNELS 6 Xposition Yposition Zposition Zrotation Xrotation Yrotation
		JOINT upperback
		{
			OFFSET -0.214371 12.3768 -1.12219
			CHANNELS 6 Xposition Yposition Zposition Zrotation Xrotation Yrotation
			JOINT thorax
			{
				OFFSET -0.00137213 12.3873 0.296195
				CHANNELS 6 Xposition Yposition Zposition Zrotation Xrotation Yrotation
				JOINT lowerneck
				{
					OFFSET 0.0883157 12.5016 0.82912
					CHANNELS 6 Xposition Yposition Zposition Zrotation Xrotation Yrotation
					JOINT upperneck
					{
						OFFSET -1 10.1794 0.943522
						CHANNELS 6 Xposition Yposition Zposition Zrotation Xrotation Yrotation
						JOINT head
						{
							OFFSET 0.667525 10.2797 -1.57149
							CHANNELS 6 Xposition Yposition Zposition Zrotation Xrotation Yrotation
							End Site
							{
								OFFSET 0 0 0
							}
						}
					}
				}
				JOINT lclavicle
				{
					OFFSET 0.0883157 12.5016 0.82912
					CHANNELS 6 Xposition Yposition Zposition Zrotation Xrotation Yrotation
					JOINT lhumerus
					{
						OFFSET 20.61 4.45006 1.43784
						CHANNELS 6 Xposition Yposition Zposition Zrotation Xrotation Yrotation
						JOINT lradius
						{
							OFFSET 0 -30.3438 0
							CHANNELS 6 Xposition Yposition Zposition Zrotation Xrotation Yrotation
							JOINT lwrist
							{
								OFFSET 0 -18.964 0
								CHANNELS 6 Xposition Yposition Zposition Zrotation Xrotation Yrotation
								JOINT lhand
								{
									OFFSET 0 -9.48199 0
									CHANNELS 6 Xposition Yposition Zposition Zrotation Xrotation Yrotation
									JOINT lfingers
									{
										OFFSET 0 -3.17138 0
										CHANNELS 6 Xposition Yposition Zposition Zrotation Xrotation Yrotation
										End Site
										{
											OFFSET 0 -2.55685 0
										}
									}
								}
								JOINT lthumb
								{
									OFFSET 0 -9.48199 0
									CHANNELS 6 Xposition Yposition Zposition Zrotation Xrotation Yrotation
									End Site
									{
										OFFSET 0 -3.67114 0
									}
								}
							}
						}
					}
				}
				JOINT rclavicle
				{
					OFFSET 0.0883157 12.5016 0.82912
					CHANNELS 6 Xposition Yposition Zposition Zrotation Xrotation Yrotation
					JOINT rhumerus
					{
						OFFSET -20.61 4.45 1.44
						CHANNELS 6 Xposition Yposition Zposition Zrotation Xrotation Yrotation
						JOINT rradius
						{
							OFFSET 0 -29.5102 0
							CHANNELS 6 Xposition Yposition Zposition Zrotation Xrotation Yrotation
							JOINT rwrist
							{
								OFFSET 0 -19.2342 0
								CHANNELS 6 Xposition Yposition Zposition Zrotation Xrotation Yrotation
								JOINT rhand
								{
									OFFSET 0 -9.61712 0
									CHANNELS 6 Xposition Yposition Zposition Zrotation Xrotation Yrotation
									JOINT rfingers
									{
										OFFSET 0 -3.29215 0
										CHANNELS 6 Xposition Yposition Zposition Zrotation Xrotation Yrotation
										End Site
										{
											OFFSET 0 -2.557 0
										}
									}
								}
								JOINT rthumb
								{
									OFFSET 0 -9.61712 0
									CHANNELS 6 Xposition Yposition Zposition Zrotation Xrotation Yrotation
									End Site
									{
										OFFSET 0 -3.671 0
									}
								}
							}
						}
					}
				}
			}
		}
	}
	JOINT rfemur
	{
		OFFSET -8.46272 -9.62775 4.76248
		CHANNELS 6 Xposition Yposition Zposition Zrotation Xrotation Yrotation
		JOINT rtibia
		{
			OFFSET 1.00552e-005 -38.0331 0
			CHANNELS 6 Xposition Yposition Zposition Zrotation Xrotation Yrotation
			JOINT rfoot
			{
				OFFSET 1.14428e-005 -43.2815 0
				CHANNELS 6 Xposition Yposition Zposition Zrotation Xrotation Yrotation
				JOINT rtoes
				{
					OFFSET 0 -14.1868 -3.08763
					CHANNELS 6 Xposition Yposition Zposition Zrotation Xrotation Yrotation
					End Site
					{
						OFFSET 0 -7.27332 0
					}
				}
			}
		}
	}
	JOINT lfemur
	{
		OFFSET 9.10607 -9.62778 4.76249
		CHANNELS 6 Xposition Yposition Zposition Zrotation Xrotation Yrotation
		JOINT ltibia
		{
			OFFSET -1.01399e-005 -38.3535 0
			CHANNELS 6 Xposition Yposition Zposition Zrotation Xrotation Yrotation
			JOINT lfoot
			{
				OFFSET -1.12937e-005 -42.7176 0
				CHANNELS 6 Xposition Yposition Zposition Zrotation Xrotation Yrotation
				JOINT ltoes
				{
					OFFSET 0 -13.9965 -2.83857
					CHANNELS 6 Xposition Yposition Zposition Zrotation Xrotation Yrotation
					End Site
					{
						OFFSET 0 -7.16348 0
					}
				}
			}
		}
	}
}
MOTION
Frames: 7
Frame Time: 0.00833333
3.46122	98.6558	61.7506	-3.68211	1.39816	-7.71921	0 0 0 0.459625	-2.18105	-1.4342	-0.214371 12.3768 -1.12219 1.57803	-2.2637	-1.94707	-0.00137213 12.3873 0.296195 1.36529	-1.05729	-0.984454	0.0883157 12.5016 0.82912 -7.20859	0.722662	-7.59568	-1 10.1794 0.943522 9.07986	-0.360469	-10.2789	0.667525 10.2797 -1.57149 4.26524	0.691136	-5.17472	0.0883157 12.5016 0.82912 -15	0	-0	20.61 4.45006 1.43784 20.3895	3.88882	-171.057	0 -30.3438 0 -0	38.4251	-0	0 -18.964 0 1.35293e-014	-2.61146e-015	-111.85	0 -9.48199 0 1.22245	4.37968	-2.58917e-014	0 -3.17138 0 -0	7.12502	-0	0 -9.48199 0 25	15	-1.36605e-015	0.0883157 12.5016 0.82912 15	0	-0	-20.61 4.45 1.44 -19.2146	4.33398	174.795	0 -29.5102 0 -0	36.4169	-0	0 -19.2342 0 1.21898e-015	-3.95228e-015	124.282	0 -9.61712 0 1.22	4.38	-0	0 -3.29215 0 -0	7.12502	-0	0 -9.61712 0 25	15	-7.97034e-015	-8.46272 -9.62775 4.76248 -0.749597	-1.10224	1.14813	1.00552e-005 -38.0331 0 -0	39.0996	-0	1.14428e-005 -43.2815 0 -0.634011	-64.4007	-0.702818	0 -14.1868 -3.08763 -0	-39.628	-0	9.10607 -9.62778 4.76249 5.17538	-6.23856	6.70358	-1.01399e-005 -38.3535 0 -0	19.2525	-0	-1.12937e-005 -42.7176 0 30.2882	-70.0199	31.8601	0 -13.9965 -2.83857 -0	-25.166	-0
3.65133	98.6603	62.1416	-3.71032	1.34416	-7.84535	0 0 0 0.360241	-2.19708	-1.43375	-0.214371 12.3768 -1.12219 1.55775	-2.28511	-1.94352	-0.00137213 12.3873 0.296195 1.40036	-1.06783	-0.98153	0.0883157 12.5016 0.82912 -7.09731	0.566738	-7.42197	-1 10.1794 0.943522 8.98388	-0.209107	-10.0427	0.667525 10.2797 -1.57149 4.19793	0.732992	-5.05211	0.0883157 12.5016 0.82912 -15	0	-0	20.61 4.45006 1.43784 20.4068	3.76326	-171.165	0 -30.3438 0 -0	38.5394	-0	0 -18.964 0 1.3531e-014	-2.60726e-015	-111.813	0 -9.48199 0 1.22245	4.37968	-2.58917e-014	0 -3.17138 0 -0	7.12502	-0	0 -9.48199 0 25	15	-1.36605e-015	0.0883157 12.5016 0.82912 15	0	-0	-20.61 4.45 1.44 -19.2111	4.34339	174.683	0 -29.5102 0 -0	36.2549	-0	0 -19.2342 0 1.22381e-015	-3.95936e-015	124.352	0 -9.61712 0 1.22	4.38	-0	0 -3.29215 0 -0	7.12502	-0	0 -9.61712 0 25	15	-7.97034e-015	-8.46272 -9.62775 4.76248 -1.03751	-1.55761	1.05559	1.00552e-005 -38.0331 0 -0	40.1832	-0	1.14428e-005 -43.2815 0 -0.411325	-63.497	-0.459426	0 -14.1868 -3.08763 -0	-39.3031	-0	9.10607 -9.62778 4.76249 4.99408	-5.69196	6.63059	-1.01399e-005 -38.3535 0 -0	18.8754	-0	-1.12937e-005 -42.7176 0 30.9015	-70.0437	32.4872	0 -13.9965 -2.83857 -0	-25.0237	-0
3.83549	98.6603	62.5213	-3.71906	1.28339	-7.96392	0 0 0 0.2337	-2.19465	-1.43349	-0.214371 12.3768 -1.12219 1.53547	-2.3022	-1.9414	-0.00137213 12.3873 0.296195 1.4491	-1.08345	-0.978513	0.0883157 12.5016 0.82912 -6.98126	0.414044	-7.24426	-1 10.1794 0.943522 8.89361	-0.0742806	-9.80057	0.667525 10.2797 -1.57149 4.12843	0.7691	-4.92681	0.0883157 12.5016 0.82912 -15	0	-0	20.61 4.45006 1.43784 20.4194	3.62362	-171.268	0 -30.3438 0 -0	38.6408	-0	0 -18.964 0 1.3533e-014	-2.60237e-015	-111.77	0 -9.48199 0 1.22245	4.37968	-2.58917e-014	0 -3.17138 0 -0	7.12502	-0	0 -9.48199 0 25	15	-1.36605e-015	0.0883157 12.5016 0.82912 15	0	-0	-20.61 4.45 1.44 -19.2129	4.34326	174.578	0 -29.5102 0 -0	36.109	-0	0 -19.2342 0 1.229e-015	-3.96694e-015	124.427	0 -9.61712 0 1.22	4.38	-0	0 -3.29215 0 -0	7.12502	-0	0 -9.61712 0 25	15	-7.97034e-015	-8.46272 -9.62775 4.76248 -1.34421	-2.05049	0.961577	1.00552e-005 -38.0331 0 -0	41.3189	-0	1.14428e-005 -43.2815 0 -0.258962	-62.5835	-0.291528	0 -14.1868 -3.08763 -0	-38.9676	-0	9.10607 -9.62778 4.76249 4.79178	-5.13388	6.55732	-1.01399e-005 -38.3535 0 -0	18.4672	-0	-1.12937e-005 -42.7176 0 31.4938	-70.0493	33.0948	0 -13.9965 -2.83857 -0	-24.8802	-0
4.0121	98.6587	62.8889	-3.70857	1.21449	-8.07498	0 0 0 0.0797665	-2.17323	-1.43337	-0.214371 12.3768 -1.12219 1.51036	-2.31416	-1.94079	-0.00137213 12.3873 0.296195 1.51079	-1.10365	-0.975473	0.0883157 12.5016 0.82912 -6.86016	0.264563	-7.0627	-1 10.1794 0.943522 8.80941	0.0465106	-9.55307	0.667525 10.2797 -1.57149 4.05848	0.800275	-4.79904	0.0883157 12.5016 0.82912 -15	0	-0	20.61 4.45006 1.43784 20.4298	3.46784	-171.367	0 -30.3438 0 -0	38.725	-0	0 -18.964 0 1.35352e-014	-2.59691e-015	-111.722	0 -9.48199 0 1.22245	4.37968	-2.58917e-014	0 -3.17138 0 -0	7.12502	-0	0 -9.48199 0 25	15	-1.36605e-015	0.0883157 12.5016 0.82912 15	0	-0	-20.61 4.45 1.44 -19.2176	4.33385	174.479	0 -29.5102 0 -0	35.9778	-0	0 -19.2342 0 1.23433e-015	-3.97471e-015	124.504	0 -9.61712 0 1.22	4.38	-0	0 -3.29215 0 -0	7.12502	-0	0 -9.61712 0 25	15	-7.97034e-015	-8.46272 -9.62775 4.76248 -1.6669	-2.58204	0.865544	1.00552e-005 -38.0331 0 -0	42.5081	-0	1.14428e-005 -43.2815 0 -0.190657	-61.6597	-0.216419	0 -14.1868 -3.08763 -0	-38.6073	-0	9.10607 -9.62778 4.76249 4.56994	-4.56329	6.48464	-1.01399e-005 -38.3535 0 -0	18.0284	-0	-1.12937e-005 -42.7176 0 32.0535	-70.0376	33.6713	0 -13.9965 -2.83857 -0	-24.7426	-0
4.18086	98.6541	63.2452	-3.68067	1.13687	-8.17867	0 0 0 -0.099246	-2.13325	-1.43335	-0.214371 12.3768 -1.12219 1.48189	-2.32047	-1.94027	-0.00137213 12.3873 0.296195 1.5835	-1.12776	-0.972336	0.0883157 12.5016 0.82912 -6.73414	0.118154	-6.87785	-1 10.1794 0.943522 8.73159	0.156456	-9.30118	0.667525 10.2797 -1.57149 3.98971	0.827659	-4.66925	0.0883157 12.5016 0.82912 -15	0	-0	20.61 4.45006 1.43784 20.4407	3.295	-171.468	0 -30.3438 0 -0	38.7894	-0	0 -18.964 0 1.35376e-014	-2.59088e-015	-111.669	0 -9.48199 0 1.22245	4.37968	-2.58917e-014	0 -3.17138 0 -0	7.12502	-0	0 -9.48199 0 25	15	-1.36605e-015	0.0883157 12.5016 0.82912 15	0	-0	-20.61 4.45 1.44 -19.2223	4.31527	174.387	0 -29.5102 0 -0	35.8592	-0	0 -19.2342 0 1.23947e-015	-3.98218e-015	124.578	0 -9.61712 0 1.22	4.38	-0	0 -3.29215 0 -0	7.12502	-0	0 -9.61712 0 25	15	-7.97034e-015	-8.46272 -9.62775 4.76248 -2.00127	-3.15315	0.766339	1.00552e-005 -38.0331 0 -0	43.7504	-0	1.14428e-005 -43.2815 0 -0.22004	-60.7221	-0.252061	0 -14.1868 -3.08763 -0	-38.2058	-0	9.10607 -9.62778 4.76249 4.33157	-3.98022	6.41319	-1.01399e-005 -38.3535 0 -0	17.5607	-0	-1.12937e-005 -42.7176 0 32.5726	-70.0101	34.2081	0 -13.9965 -2.83857 -0	-24.6163	-0
4.34109	98.6479	63.5922	-3.63857	1.05071	-8.27514	0 0 0 -0.298746	-2.07596	-1.43338	-0.214371 12.3768 -1.12219 1.44972	-2.32091	-1.93985	-0.00137213 12.3873 0.296195 1.66429	-1.15499	-0.968685	0.0883157 12.5016 0.82912 -6.60375	-0.0255387	-6.69057	-1 10.1794 0.943522 8.66046	0.259341	-9.04637	0.667525 10.2797 -1.57149 3.92352	0.852696	-4.53815	0.0883157 12.5016 0.82912 -15	0	-0	20.61 4.45006 1.43784 20.4548	3.10548	-171.572	0 -30.3438 0 -0	38.8331	-0	0 -18.964 0 1.35402e-014	-2.58428e-015	-111.611	0 -9.48199 0 1.22245	4.37968	-2.58917e-014	0 -3.17138 0 -0	7.12502	-0	0 -9.48199 0 25	15	-1.36605e-015	0.0883157 12.5016 0.82912 15	0	-0	-20.61 4.45 1.44 -19.2242	4.28735	174.301	0 -29.5102 0 -0	35.7503	-0	0 -19.2342 0 1.24427e-015	-3.98913e-015	124.647	0 -9.61712 0 1.22	4.38	-0	0 -3.29215 0 -0	7.12502	-0	0 -9.61712 0 25	15	-7.97034e-015	-8.46272 -9.62775 4.76248 -2.34177	-3.76443	0.662319	1.00552e-005 -38.0331 0 -0	45.0437	-0	1.14428e-005 -43.2815 0 -0.359673	-59.7644	-0.416099	0 -14.1868 -3.08763 -0	-37.7459	-0	9.10607 -9.62778 4.76249 4.08086	-3.38575	6.34331	-1.01399e-005 -38.3535 0 -0	17.0672	-0	-1.12937e-005 -42.7176 0 33.0461	-69.9684	34.7002	0 -13.9965 -2.83857 -0	-24.5048	-0
4.49324	98.6395	63.932	-3.5865	0.956932	-8.3644	0 0 0 -0.512382	-2.00331	-1.43341	-0.214371 12.3768 -1.12219 1.41383	-2.31558	-1.93953	-0.00137213 12.3873 0.296195 1.74951	-1.1846	-0.963972	0.0883157 12.5016 0.82912 -6.47002	-0.167155	-6.50198	-1 10.1794 0.943522 8.59635	0.359379	-8.79044	0.667525 10.2797 -1.57149 3.861	0.877073	-4.40656	0.0883157 12.5016 0.82912 -15	0	-0	20.61 4.45006 1.43784 20.4745	2.90079	-171.684	0 -30.3438 0 -0	38.8572	-0	0 -18.964 0 1.35429e-014	-2.57733e-015	-111.55	0 -9.48199 0 1.22245	4.37968	-2.58917e-014	0 -3.17138 0 -0	7.12502	-0	0 -9.48199 0 25	15	-1.36605e-015	0.0883157 12.5016 0.82912 15	0	-0	-20.61 4.45 1.44 -19.2206	4.24988	174.22	0 -29.5102 0 -0	35.6478	-0	0 -19.2342 0 1.24852e-015	-3.99527e-015	124.708	0 -9.61712 0 1.22	4.38	-0	0 -3.29215 0 -0	7.12502	-0	0 -9.61712 0 25	15	-7.97034e-015	-8.46272 -9.62775 4.76248 -2.68205	-4.4161	0.55144	1.00552e-005 -38.0331 0 -0	46.3839	-0	1.14428e-005 -43.2815 0 -0.619711	-58.7782	-0.724449	0 -14.1868 -3.08763 -0	-37.2116	-0	9.10607 -9.62778 4.76249 3.82285	-2.78184	6.27513	-1.01399e-005 -38.3535 0 -0	16.5518	-0	-1.12937e-005 -42.7176 0 33.4719	-69.9144	35.1453	0 -13.9965 -2.83857 -0	-24.4097	-0
